<?xml version="1.0" standalone="no"?>
<!DOCTYPE svg PUBLIC "-//W3C//DTD SVG 1.1//EN" "http://www.w3.org/Graphics/SVG/1.1/DTD/svg11.dtd" >
<svg xmlns="http://www.w3.org/2000/svg">
<metadata>Generated by IcoMoon</metadata>
<defs>
<font id="mageplus-module" horiz-adv-x="1024">
<font-face units-per-em="1024" ascent="960" descent="-64" />
<missing-glyph horiz-adv-x="1024" />
<glyph unicode="&#x20;" horiz-adv-x="512" d="" />
<glyph unicode="&#xe900;" glyph-name="Logo2" horiz-adv-x="1117" d="M815.278 401.341h137.741v-465.341h-137.741v465.341zM1116.819 215.577v-137.741h-464.969v137.741h464.969zM0 959.751h148.909v-1023.751h-148.909v1023.751zM243.031-64l693.98 1023.751h179.901l-693.984-1023.751h-179.897zM368.215 430.378l-335.872 439.159 118.282 90.462 405.059-529.622h-187.469z" />
<glyph unicode="&#xf002;" glyph-name="search" d="M1017-3.199c9.4-9.4 9.4-24.602 0-34l-19.801-19.801c-9.398-9.4-24.6-9.4-34 0l-258 258c-4.398 4.6-7 10.6-7 17v20.4c-74.199-68.4-173.199-110.4-282.2-110.4-229.8 0-416 186.199-416 416s186.199 416 416 416 416-186.199 416-416c0-109-42-208-110.6-282.2h20.6c6.4 0 12.4-2.4 17-7zM416 192c194.6 0 352 157.4 352 352s-157.4 352-352 352-352-157.4-352-352 157.4-352 352-352z" />
<glyph unicode="&#xf004;" glyph-name="heart" d="M924.6 834.6c125.6-107.199 132.201-299.6 19.4-415.6l-387-399.6c-12.4-13-28.801-19.4-45.199-19.4-16.4 0-32.801 6.6-45.201 19.4l-387 399.6c-112.4 116-105.799 308.4 19.801 415.6 127 108 291.6 57.201 373.2-27.199l39.4-40.6 39.4 40.799c101.199 104.4 264.2 119.801 373.2 27zM898.4 463.4c76.799 79.4 92.6 230.4-15.4 322.4-109.199 93-239.2 25-285.6-23l-85.4-88.201-85.4 88.201c-47.199 48.799-176 116.6-285.6 23-108.199-92.201-92.199-243.202-15.4-322.4l387.202-399.6z" />
<glyph unicode="&#xf007;" glyph-name="user" horiz-adv-x="896" d="M627.2 384c148.4 0 268.8-120.4 268.8-268.8v-83.199c0-53-43-96-96-96h-704c-53 0-96 43-96 96v83.199c0 148.4 120.4 268.8 268.8 268.8 57.6 0 85-32 179.199-32s121.801 32 179.199 32zM832 32v83.199c0 113-91.801 204.8-204.8 204.8-39.199 0-78.398-32-179.199-32-101 0-140 32-179.199 32-113 0-204.8-91.801-204.8-204.8v-83.199c0-17.6 14.4-32 32-32h704c17.6 0 32 14.4 32 32zM448 448c-141.4 0-256 114.6-256 256s114.6 256 256 256 256-114.6 256-256-114.6-256-256-256zM448 896c-105.801 0-192-86.199-192-192s86.199-192 192-192 192 86.199 192 192-86.199 192-192 192z" />
<glyph unicode="&#xf00c;" glyph-name="check" horiz-adv-x="896" d="M827.010 776.098c9.373 9.373 24.568 9.373 33.939 0l22.629-22.627c9.371-9.375 9.371-24.57 0-33.943l-599.626-599.624c-9.373-9.373-24.568-9.373-33.941 0l-237.588 237.588c-9.371 9.373-9.371 24.57 0 33.941l22.627 22.627c9.373 9.371 24.568 9.371 33.941 0l197.99-197.99z" />
<glyph unicode="&#xf00d;" glyph-name="times" horiz-adv-x="640" d="M387.88 448l247.42-247.42c6.238-6.24 6.238-16.381 0-22.619l-45.262-45.262c-6.238-6.238-16.379-6.238-22.619 0l-247.421 247.421-247.44-247.42c-6.24-6.238-16.381-6.238-22.621 0l-45.26 45.262c-6.24 6.238-6.24 16.379 0 22.619l247.44 247.42-247.44 247.44c-6.24 6.24-6.24 16.381 0 22.621l45.281 45.26c6.238 6.24 16.379 6.24 22.619 0l247.42-247.44 247.42 247.42c6.24 6.238 16.381 6.238 22.619 0l45.262-45.262c6.238-6.238 6.238-16.379 0-22.619l-42.301-42.301z" />
<glyph unicode="&#xf044;" glyph-name="edit" horiz-adv-x="1152" d="M835.6 329l40 40c7.6 7.6 20.4 2.199 20.4-8.4v-328.6c0-53-43-96-96-96h-704c-53 0-96 43-96 96v704c0 53 43 96 96 96h584.6c10.6 0 16-13 8.4-20.4l-40-40c-2.199-2.199-5.4-3.6-8.4-3.6h-544.6c-17.6 0-32-14.4-32-32v-704c0-17.6 14.4-32 32-32h704c17.6 0 32 14.4 32 32v288.6c0 3.201 1.199 6.201 3.6 8.4zM1127.4 711.4l-625-625-199.801-22.201c-26.799-3-49.4 19.602-46.4 46.4l22.201 199.801 625 625c32.799 32.799 86 32.799 118.799 0l105.201-105.201c32.799-32.799 32.799-86 0-118.799zM940.2 614.6l-133.398 133.4-467.202-467-16.6-150.199 150.199 16.6zM1082.2 785l-105.199 105.199c-7.6 7.602-20.4 8-28.199 0l-96.801-96.799 133.4-133.4 96.799 96.801c7.801 7.6 7.801 20.398 0 28.199z" />
<glyph unicode="&#xf053;" glyph-name="chevron-left" horiz-adv-x="512" d="M476.95 8.93c-9.371-9.373-24.566-9.373-33.939-0.002l-422.102 422.1c-9.373 9.375-9.373 24.57 0 33.943l422.102 422.1c9.373 9.371 24.568 9.371 33.939 0l14.143-14.141c9.373-9.373 9.373-24.57 0-33.941l-390.986-390.988 390.986-390.988c9.373-9.373 9.373-24.57 0-33.941z" />
<glyph unicode="&#xf054;" glyph-name="chevron-right" horiz-adv-x="512" d="M35.051 887.070c9.371 9.373 24.566 9.373 33.939 0l422.102-422.098c9.373-9.375 9.373-24.57 0-33.943l-422.102-422.1c-9.373-9.371-24.568-9.371-33.939 0l-14.143 14.141c-9.373 9.373-9.373 24.57 0 33.941l390.986 390.988-390.986 390.988c-9.373 9.373-9.373 24.57 0 33.941z" />
<glyph unicode="&#xf055;" glyph-name="plus-circle" d="M768 460v-24c0-13.199-10.801-24-24-24h-196v-196c0-13.199-10.801-24-24-24h-24c-13.199 0-24 10.801-24 24v196h-196c-13.199 0-24 10.801-24 24v24c0 13.199 10.801 24 24 24h196v196c0 13.199 10.801 24 24 24h24c13.199 0 24-10.801 24-24v-196h196c13.199 0 24-10.801 24-24zM1008 448c0-274-222-496-496-496s-496 222-496 496 222 496 496 496 496-222 496-496zM944 448c0 239.8-194.6 432-432 432-239.8 0-432-194.6-432-432 0-239.8 194.6-432 432-432 239.8 0 432 194.6 432 432z" />
<glyph unicode="&#xf056;" glyph-name="minus-circle" d="M280 412c-13.199 0-24 10.801-24 24v24c0 13.199 10.801 24 24 24h464c13.199 0 24-10.801 24-24v-24c0-13.199-10.801-24-24-24h-464zM1008 448c0-274-222-496-496-496s-496 222-496 496 222 496 496 496 496-222 496-496zM944 448c0 239.8-194.6 432-432 432-239.8 0-432-194.6-432-432 0-239.8 194.6-432 432-432 239.8 0 432 194.6 432 432z" />
<glyph unicode="&#xf057;" glyph-name="times-circle" d="M512 944c274 0 496-222 496-496s-222-496-496-496-496 222-496 496 222 496 496 496zM512 16c239.8 0 432 194.6 432 432 0 239.8-194.6 432-432 432-239.8 0-432-194.6-432-432 0-239.8 194.6-432 432-432zM701.6 586.6l-138.6-138.6 138.6-138.6c9.4-9.4 9.4-24.6 0-34l-17-17c-9.4-9.4-24.6-9.4-34 0l-138.6 138.6-138.6-138.6c-9.4-9.4-24.6-9.4-34 0l-17 17c-9.4 9.4-9.4 24.6 0 34l138.6 138.6-138.6 138.6c-9.4 9.4-9.4 24.6 0 34l17 17c9.4 9.4 24.6 9.4 34 0l138.6-138.6 138.6 138.6c9.4 9.4 24.6 9.4 34 0l17-17c9.201-9.4 9.201-24.6 0-34z" />
<glyph unicode="&#xf058;" glyph-name="check-circle" d="M512 944c273.934 0 496-222.066 496-496s-222.066-496-496-496-496 222.066-496 496 222.066 496 496 496zM512 16c239.89 0 432 194.674 432 432 0 239.89-194.672 432-432 432-239.89 0-432-194.674-432-432 0-239.89 194.672-432 432-432zM795.26 565.922l-360.958-358.064c-9.41-9.334-24.607-9.273-33.941 0.137l-171.756 173.145c-9.334 9.41-9.273 24.605 0.137 33.939l17.039 16.902c9.41 9.334 24.607 9.273 33.941-0.137l137.951-139.066 326.882 324.26c9.41 9.334 24.605 9.275 33.939-0.135l16.902-17.041c9.336-9.41 9.273-24.605-0.137-33.939z" />
<glyph unicode="&#xf067;" glyph-name="plus" horiz-adv-x="768" d="M752 496c8.84 0 16-7.16 16-16v-64c0-8.84-7.16-16-16-16h-320v-320c0-8.84-7.16-16-16-16h-64c-8.84 0-16 7.16-16 16v320h-320c-8.84 0-16 7.16-16 16v64c0 8.84 7.16 16 16 16h320v320c0 8.84 7.16 16 16 16h64c8.84 0 16-7.16 16-16v-320h320z" />
<glyph unicode="&#xf068;" glyph-name="minus" horiz-adv-x="768" d="M752 496c8.84 0 16-7.16 16-16v-64c0-8.84-7.16-16-16-16h-736c-8.84 0-16 7.16-16 16v64c0 8.84 7.16 16 16 16h736z" />
<glyph unicode="&#xf077;" glyph-name="chevron-up" horiz-adv-x="896" d="M8.93 227.051c-9.373 9.371-9.373 24.566 0 33.939l422.098 422.102c9.375 9.373 24.57 9.373 33.943 0l422.1-422.102c9.371-9.373 9.371-24.568 0-33.939l-14.141-14.143c-9.373-9.373-24.57-9.373-33.941 0l-390.988 390.986-390.988-390.986c-9.373-9.373-24.57-9.373-33.941 0z" />
<glyph unicode="&#xf078;" glyph-name="chevron-down" horiz-adv-x="896" d="M887 634.8c9.4-9.4 9.4-24.602-0.199-34l-422-422.202c-9.4-9.4-24.602-9.4-34 0l-422 422.202c-9.4 9.398-9.4 24.6 0 34l14.199 14.199c9.4 9.4 24.6 9.4 34 0l391-391 390.8 391c9.398 9.4 24.6 9.4 34 0z" />
<glyph unicode="&#xf07b;" glyph-name="folder" d="M389.48 768h-293.48c-17.68 0-32-14.32-32-32v-576c0-17.68 14.32-32 32-32h832c17.68 0 32 14.32 32 32v448c0 17.68-14.32 32-32 32h-384c-16.98 0-33.26 6.74-45.26 18.74zM96 832h293.48c16.98 0 33.26-6.74 45.26-18.74l109.26-109.26h384c53.020 0 96-42.98 96-96v-448c0-53.020-42.98-96-96-96h-832c-53.020 0-96 42.98-96 96v576c0 53.020 42.98 96 96 96z" />
<glyph unicode="&#xf07c;" glyph-name="folder-open" horiz-adv-x="1152" d="M1055.9 512c74.67 0 120.58-81.623 82.318-145.393l-134.906-224.928c-28.928-48.213-81.062-77.68-137.199-77.68h-770.114c-53.020 0-96 42.98-96 96v576c0 53.020 42.98 96 96 96h320l128-128h320c53.020 0 96-42.98 96-96v-96h95.9zM96 768c-17.674 0-32-14.326-32-32v-536.94l141.156 235.26c28.928 48.213 81.062 77.68 137.197 77.68h553.646v96c0 17.674-14.326 32-32 32h-346.51l-128 128h-293.49zM1083.39 399.536c12.797 21.328-2.566 48.465-27.441 48.465h-719.95c-30.004 0-66.883-20.881-82.32-46.607l-164.033-273.392h776.47c30.002 0 66.879 20.881 82.314 46.607z" />
<glyph unicode="&#xf0c9;" glyph-name="bars" horiz-adv-x="896" d="M884 732h-872c-6.623 0-12 5.377-12 12v48c0 6.623 5.377 12 12 12h872c6.623 0 12-5.377 12-12v-48c0-6.623-5.377-12-12-12zM884 412h-872c-6.623 0-12 5.377-12 12v48c0 6.623 5.377 12 12 12h872c6.623 0 12-5.377 12-12v-48c0-6.623-5.377-12-12-12zM884 92h-872c-6.623 0-12 5.377-12 12v48c0 6.623 5.377 12 12 12h872c6.623 0 12-5.377 12-12v-48c0-6.623-5.377-12-12-12z" />
<glyph unicode="&#xf0d7;" glyph-name="caret-down" horiz-adv-x="640" d="M575.936 640c56.965 0 85.455-69.057 45.256-109.254l-255.936-256c-24.994-24.994-65.518-24.992-90.51 0l-255.924 256c-40.279 40.277-11.596 109.254 45.254 109.254h511.86zM320 320l256 256h-512z" />
<glyph unicode="&#xf0d8;" glyph-name="caret-up" horiz-adv-x="640" d="M64.064 256c-56.965 0-85.455 69.057-45.256 109.254l255.936 256c24.994 24.994 65.518 24.992 90.51 0l255.924-256c40.279-40.277 11.596-109.254-45.254-109.254h-511.86zM320 576l-256-256h512z" />
<glyph unicode="&#xf0d9;" glyph-name="caret-left" horiz-adv-x="384" d="M384 192.064c0-56.965-69.057-85.455-109.254-45.256l-256 255.936c-24.994 24.994-24.992 65.518 0 90.51l256 255.924c40.277 40.279 109.254 11.596 109.254-45.254v-511.86zM64 448l256-256v512z" />
<glyph unicode="&#xf0da;" glyph-name="caret-right" horiz-adv-x="384" d="M0 703.936c0 56.965 69.057 85.455 109.254 45.256l256-255.936c24.994-24.994 24.992-65.518 0-90.51l-256-255.924c-40.277-40.279-109.254-11.596-109.254 45.254v511.86zM320 448l-256 256v-512z" />
<glyph unicode="&#xf14a;" glyph-name="check-square" horiz-adv-x="896" d="M800 896c53.020 0 96-42.98 96-96v-704c0-53.020-42.98-96-96-96h-704c-53.020 0-96 42.98-96 96v704c0 53.020 42.98 96 96 96h704zM800 832h-704c-17.645 0-32-14.355-32-32v-704c0-17.645 14.355-32 32-32h704c17.646 0 32 14.355 32 32v704c0 17.645-14.354 32-32 32zM731.398 635.414c9.334-9.41 9.271-24.605-0.137-33.939l-360.958-358.064c-9.41-9.336-24.607-9.273-33.941 0.137l-171.756 173.143c-9.336 9.41-9.273 24.607 0.137 33.941l17.039 16.9c9.41 9.336 24.607 9.275 33.941-0.135l137.951-139.066 326.882 324.26c9.41 9.336 24.605 9.273 33.939-0.137z" />
<glyph unicode="&#xf14b;" glyph-name="pen-square" horiz-adv-x="896" d="M800 896c53 0 96-43 96-96v-704c0-53-43-96-96-96h-704c-53 0-96 43-96 96v704c0 53 43 96 96 96h704zM832 96v704c0 17.6-14.4 32-32 32h-704c-17.6 0-32-14.4-32-32v-704c0-17.6 14.4-32 32-32h704c17.6 0 32 14.4 32 32zM697.8 744.6l46.799-46.799c31.201-31.4 31.201-82 0-113.201l-440.6-440.6-142.6-16c-19.201-2-35.4 14-33.201 33.199l15.801 142.801 440.6 440.6c31.4 31.201 82 31.201 113.201 0zM274.6 205.199l325.202 325.602-69.4 69.398-325.4-325.398-8.6-78.201zM699.4 629.8c6.199 6.199 6.199 16.398 0 22.6l-46.801 46.799c-6.199 6.201-16.4 6.201-22.6 0l-54-54 69.4-69.398z" />
<glyph unicode="&#xf175;" glyph-name="long-arrow-down" horiz-adv-x="512" d="M504.97 273.94c9.373-9.371 9.373-24.568 0.002-33.939l-232-232.97c-9.375-9.371-24.57-9.371-33.943 0l-232 232.97c-9.371 9.371-9.371 24.568 0 33.939l14.141 14.143c9.375 9.371 24.57 9.371 33.941 0l166.889-167.855v751.774c0 13.254 10.746 24 24 24h20c13.254 0 24-10.746 24-24v-751.774l166.889 167.855c9.373 9.371 24.568 9.371 33.941 0z" />
<glyph unicode="&#xf176;" glyph-name="long-arrow-up" horiz-adv-x="512" d="M7.029 622.060c-9.373 9.371-9.373 24.568 0 33.939l231.998 232.97c9.375 9.371 24.57 9.371 33.943 0l232-232.97c9.371-9.371 9.371-24.568 0-33.939l-14.141-14.143c-9.375-9.371-24.57-9.371-33.941 0l-166.889 167.855v-751.774c0-13.254-10.746-24-24-24h-20c-13.254 0-24 10.746-24 24v751.774l-166.889-167.855c-9.373-9.371-24.568-9.371-33.941 0z" />
<glyph unicode="&#xf177;" glyph-name="long-arrow-left" horiz-adv-x="896" d="M273.94 199.029c-9.371-9.373-24.568-9.373-33.939-0.002l-232.97 232c-9.371 9.375-9.371 24.57 0 33.943l232.97 232c9.371 9.371 24.568 9.371 33.939 0l14.143-14.141c9.371-9.375 9.371-24.57 0-33.941l-167.855-166.889h751.774c13.254 0 24-10.746 24-24v-20c0-13.254-10.746-24-24-24h-751.774l167.855-166.889c9.371-9.373 9.371-24.568 0-33.941z" />
<glyph unicode="&#xf178;" glyph-name="long-arrow-right" horiz-adv-x="896" d="M622.060 696.97c9.371 9.373 24.568 9.373 33.939 0l232.97-231.998c9.371-9.375 9.371-24.57 0-33.943l-232.97-232c-9.371-9.371-24.568-9.371-33.939 0l-14.143 14.141c-9.371 9.375-9.371 24.57 0 33.941l167.855 166.889h-751.774c-13.254 0-24 10.746-24 24v20c0 13.254 10.746 24 24 24h751.774l-167.855 166.889c-9.371 9.373-9.371 24.568 0 33.941z" />
<glyph unicode="&#xf204;" glyph-name="toggle-off" horiz-adv-x="1152" d="M768 768h-384c-85.477 0-165.834-33.285-226.274-93.727-60.441-60.439-93.727-140.797-93.727-226.274s33.285-165.834 93.727-226.274c60.439-60.441 140.797-93.727 226.274-93.727h384c85.477 0 165.834 33.285 226.274 93.727 60.441 60.439 93.727 140.797 93.727 226.274s-33.285 165.834-93.727 226.274c-60.439 60.441-140.797 93.727-226.274 93.727zM768 832c212.078 0 384-171.922 384-384s-171.922-384-384-384h-384c-212.078 0-384 171.922-384 384s171.922 384 384 384h384zM384 640c-105.869 0-192-86.131-192-192s86.131-192 192-192 192 86.131 192 192-86.131 192-192 192zM384 704c141.385 0 256-114.613 256-256s-114.615-256-256-256-256 114.613-256 256 114.615 256 256 256z" />
<glyph unicode="&#xf205;" glyph-name="toggle-on" horiz-adv-x="1152" d="M768 768h-384c-176.879 0-320-143.15-320-320 0-176.879 143.148-320 320-320h384c176.879 0 320 143.148 320 320 0 176.879-143.148 320-320 320zM768 832c212.078 0 384-171.922 384-384s-171.922-384-384-384h-384c-212.078 0-384 171.922-384 384s171.922 384 384 384h384zM768 224c-66.904 0-126.955 29.33-168.002 75.836-34.85 39.486-55.998 91.355-55.998 148.164 0 123.713 100.287 224 224 224s224-100.287 224-224-100.287-224-224-224z" />
</font>
</defs>
</svg>
